<?xml version="1.0" standalone="no"?>
<!DOCTYPE svg PUBLIC "-//W3C//DTD SVG 20010904//EN"
 "http://www.w3.org/TR/2001/REC-SVG-20010904/DTD/svg10.dtd">
<svg version="1.0" xmlns="http://www.w3.org/2000/svg"
 width="420.000000pt" height="420.000000pt" viewBox="0 0 420.000000 420.000000"
 preserveAspectRatio="xMidYMid meet">
<metadata>
Created by potrace 1.11, written by Peter Selinger 2001-2013
</metadata>
<g transform="translate(0.000000,420.000000) scale(0.100000,-0.100000)"
fill="#000000" stroke="none">
<path d="M2260 3403 c-19 -2 -71 -13 -115 -24 -111 -28 -113 -29 -133 -33 -9
-2 -37 -9 -62 -16 -25 -7 -46 -12 -47 -11 -2 0 -21 -6 -43 -14 -22 -8 -42 -14
-45 -15 -3 0 -7 -1 -10 -1 -3 -1 -13 -2 -22 -3 -10 -1 -24 -5 -30 -9 -7 -5
-13 -6 -13 -3 0 3 -12 1 -27 -5 -30 -12 -77 -22 -105 -23 -10 0 -18 -3 -18 -7
0 -9 -21 -6 -40 6 -15 9 -98 10 -137 0 -13 -3 -31 -7 -40 -9 -10 -2 -36 -12
-58 -22 -22 -9 -54 -18 -70 -19 -40 -3 -147 -26 -160 -33 -5 -4 -18 -7 -27 -8
-10 -1 -19 -2 -20 -4 -2 -1 -10 -3 -18 -5 -8 -2 -35 -11 -60 -18 -113 -36
-166 -51 -177 -48 -7 1 -13 -3 -13 -8 0 -5 -8 -10 -18 -9 -9 0 -28 -3 -42 -7
-14 -3 -29 -7 -35 -8 -5 -2 -15 -6 -21 -10 -6 -3 -25 -8 -43 -9 -17 -1 -31 -5
-31 -8 0 -3 -10 -7 -22 -8 -42 -3 -88 -14 -88 -22 0 -15 53 -30 93 -25 66 8
140 17 157 20 37 7 168 16 308 20 108 4 170 11 212 24 l60 19 1 -22 c1 -11 3
-70 4 -131 1 -69 10 -142 23 -195 11 -47 23 -100 27 -118 5 -27 13 -34 38 -40
18 -3 37 -5 42 -3 31 10 85 11 85 1 0 -5 -4 -10 -8 -10 -8 0 -122 -91 -222
-178 -109 -95 -150 -143 -150 -174 0 -15 -6 -28 -12 -29 -7 0 -24 -3 -38 -6
-50 -11 -179 -6 -330 12 -19 2 -62 7 -95 10 -33 3 -67 7 -75 8 -20 4 -52 22
-52 30 0 19 -12 47 -20 47 -5 0 -7 4 -3 9 3 5 0 15 -7 23 -7 7 -14 20 -16 28
-2 8 -11 24 -20 34 -13 15 -14 18 -2 12 8 -4 6 0 -4 8 -11 9 -17 16 -13 16 4
0 -3 11 -15 25 -11 13 -25 22 -30 19 -5 -3 -8 -2 -7 3 1 4 -1 16 -6 27 -5 11
-3 26 3 37 10 16 4 28 -49 84 -35 36 -66 62 -73 58 -6 -3 -8 -3 -4 2 8 9 -113
131 -125 127 -5 -1 -6 2 -3 7 11 17 -27 36 -79 38 -43 1 -51 -2 -50 -15 2 -31
100 -214 136 -256 46 -53 52 -105 14 -130 -23 -15 -24 -20 -21 -89 3 -39 7
-94 11 -120 4 -26 3 -47 -2 -46 -19 5 -63 -14 -63 -27 0 -8 -7 -17 -16 -21
-14 -5 -15 -25 -10 -162 4 -86 8 -169 11 -186 4 -32 18 -198 19 -227 0 -11 12
-19 36 -23 31 -6 38 -3 62 26 22 26 28 44 28 79 0 41 5 50 45 89 42 41 45 47
45 97 l0 53 45 7 c35 5 45 10 45 26 0 16 5 18 41 14 22 -3 46 -9 52 -15 12 -9
150 -30 192 -28 11 0 45 -3 75 -8 30 -4 66 -7 79 -6 14 1 27 -3 31 -8 3 -6 55
-11 115 -12 113 -2 151 -6 141 -17 -3 -3 1 -14 11 -24 9 -10 13 -18 8 -18 -4
0 -3 -6 3 -13 6 -7 13 -25 16 -41 3 -15 10 -33 15 -40 6 -7 8 -16 4 -19 -3 -4
-1 -7 5 -7 7 0 11 -5 10 -10 -2 -6 11 -19 27 -30 32 -20 31 -20 94 18 18 11
21 10 21 -5 0 -28 29 -63 51 -63 11 0 22 -8 26 -17 34 -95 149 -136 214 -77
17 15 25 16 77 4 31 -7 81 -14 110 -15 47 -2 55 1 77 27 14 16 25 34 25 39 0
24 18 5 29 -31 14 -49 46 -80 81 -80 29 0 94 39 155 92 l39 35 42 -18 c23 -10
52 -21 65 -23 13 -3 25 -5 27 -7 1 -1 7 -3 12 -4 6 -1 13 -4 18 -5 4 -1 10 -2
15 -1 4 0 7 -4 7 -10 0 -5 4 -8 9 -4 5 3 12 1 16 -5 4 -6 10 -8 15 -5 5 3 26
-3 47 -13 55 -28 163 -60 200 -60 48 -1 95 -29 88 -52 -7 -23 47 -62 113 -81
l42 -12 -6 -74 c-6 -72 -6 -75 31 -134 36 -59 37 -62 30 -133 -6 -71 -6 -73
20 -84 36 -17 40 -16 79 18 33 30 45 61 61 160 4 19 10 53 15 75 5 22 12 56
15 75 6 39 22 131 29 170 2 14 9 53 15 88 7 34 9 67 6 72 -7 11 -54 3 -70 -11
-5 -5 -12 -9 -15 -9 -8 0 -2 139 7 160 3 8 5 21 4 28 -1 8 2 19 7 25 19 23 23
116 7 141 -11 17 -13 30 -6 48 8 21 24 28 118 52 59 16 193 57 297 92 105 35
206 64 225 64 21 0 47 10 68 26 31 24 33 28 20 42 -14 13 -12 23 14 94 16 44
27 83 25 86 -2 4 1 17 8 30 l12 22 22 -30 c13 -17 27 -28 33 -25 5 4 8 3 7 -2
-3 -10 20 -53 38 -71 15 -14 30 -15 87 -6 34 6 63 24 37 24 -6 0 -8 4 -5 10 3
5 -5 29 -19 53 -14 23 -44 92 -66 151 -55 147 -111 252 -129 242 -3 -2 -6 18
-7 44 -1 51 -34 119 -80 165 -13 13 -24 27 -24 30 2 13 -58 84 -65 77 -5 -4
-5 -2 -2 4 4 6 -9 28 -28 48 -19 20 -33 38 -32 39 1 1 -6 13 -15 25 -12 18
-27 24 -62 27 -43 2 -46 1 -40 -19 4 -11 11 -23 15 -24 5 -2 7 -8 4 -13 -3 -4
1 -19 8 -31 8 -13 22 -44 32 -70 10 -27 22 -48 28 -48 6 0 7 -3 4 -6 -6 -6 29
-78 66 -135 21 -32 11 -74 -19 -88 -29 -13 -43 -47 -48 -115 -5 -82 -7 -84
-79 -74 -92 13 -120 18 -139 24 -23 7 -59 15 -83 18 -11 2 -31 6 -45 9 -29 8
-78 18 -102 21 -9 1 -23 8 -32 15 -8 7 -21 9 -27 5 -7 -4 -9 -3 -6 3 4 6 0 13
-8 17 -8 3 -15 16 -15 29 0 15 -17 40 -48 70 -27 25 -54 58 -61 74 -11 26 -63
57 -117 67 -10 2 -48 12 -84 21 -36 10 -76 20 -90 22 -42 7 -54 10 -70 16 -8
3 -22 5 -30 5 -8 0 -31 3 -50 6 -69 13 -82 14 -153 21 -114 11 -157 12 -157 4
0 -4 -9 -6 -20 -4 -11 2 -20 -1 -20 -7 0 -6 -3 -9 -6 -5 -4 3 -20 -1 -36 -9
-17 -9 -42 -18 -57 -20 -14 -2 -42 -7 -61 -10 -19 -4 -44 -8 -55 -9 -36 -3
-50 -10 -73 -33 -12 -13 -26 -21 -30 -18 -5 3 -33 7 -63 10 -30 3 -64 8 -75
10 -12 2 -39 7 -60 10 -72 12 -157 37 -171 52 -11 11 -14 33 -10 98 4 60 2 90
-8 102 -18 26 0 61 39 73 35 11 150 38 199 46 17 3 124 28 237 56 113 28 212
52 220 54 53 12 69 18 64 26 -3 5 -8 8 -12 7 -4 0 -23 -3 -42 -5z m737 -1023
c26 -16 54 -30 62 -30 8 0 24 -8 35 -18 19 -17 93 -35 200 -48 17 -2 87 -15
156 -28 69 -14 129 -21 135 -17 20 15 62 -3 70 -30 4 -11 11 -17 16 -13 5 3 9
2 8 -3 -4 -21 2 -34 13 -27 6 4 8 3 5 -3 -4 -6 0 -19 8 -29 18 -24 18 -30 3
-32 -7 0 -24 -3 -38 -7 -14 -3 -32 -8 -40 -10 -8 -2 -15 -4 -15 -5 0 -2 -33
-10 -60 -15 -11 -2 -32 -8 -47 -14 -16 -6 -28 -7 -28 -4 0 4 -5 2 -11 -4 -6
-6 -17 -9 -24 -7 -7 3 -16 1 -19 -5 -4 -6 -13 -8 -20 -5 -8 3 -17 1 -20 -5 -4
-6 -13 -8 -21 -4 -8 3 -15 1 -15 -4 0 -5 -6 -10 -12 -11 -7 0 -24 -3 -38 -7
-14 -4 -31 -7 -37 -7 -7 -1 -13 -5 -13 -9 0 -4 -8 -8 -17 -8 -37 -1 -53 -5
-53 -11 0 -8 -7 -9 -100 -16 -67 -4 -105 -9 -120 -14 -3 -1 -8 -2 -13 -1 -4 0
-6 -5 -5 -11 2 -7 -3 -12 -10 -10 -6 1 -11 -3 -10 -10 2 -6 -9 -13 -24 -15
-16 -1 -38 -4 -50 -6 -13 -1 -27 -5 -33 -8 -5 -4 -20 -5 -32 -4 -13 1 -23 -1
-23 -5 0 -4 -6 -7 -12 -8 -41 -3 -84 -16 -90 -25 -4 -7 -8 -7 -8 -2 0 6 -4 5
-8 -2 -4 -6 -16 -13 -27 -15 -11 -1 -22 -6 -25 -10 -3 -4 -16 -9 -28 -11 -12
-2 -25 -6 -28 -10 -11 -11 -44 -8 -44 4 0 5 -4 8 -9 4 -5 -3 -12 -1 -16 5 -4
6 -11 8 -16 5 -5 -4 -9 -2 -9 3 0 12 94 106 214 216 49 44 97 90 107 101 55
62 67 80 62 88 -3 6 -1 7 4 4 29 -18 95 74 99 138 1 17 2 38 3 48 1 24 13 22
68 -13z m-2752 -540 c-3 -6 1 -13 9 -16 21 -8 22 -87 1 -107 -8 -8 -11 -18 -7
-21 3 -4 -2 -4 -11 0 -29 11 -19 152 11 154 2 0 0 -5 -3 -10z m2777 -651 c-3
-12 -7 -50 -11 -98 -1 -11 -5 -10 -20 3 -19 17 -19 25 -6 86 2 8 4 19 4 23 1
5 9 7 19 5 9 -2 15 -11 14 -19z"/>
</g>
</svg>
